<svg width="600" height="600" viewBox="0 0 600 600" fill="none" xmlns="http://www.w3.org/2000/svg">
<path d="M300 600C465.685 600 600 465.685 600 300C600 134.315 465.685 0 300 0C134.315 0 0 134.315 0 300C0 465.685 134.315 600 300 600Z" fill="#1769FF"/>
<path d="M204.055 156.9C217.195 156.9 229.333 157.9 240.472 160.898C251.61 162.897 260.746 167.022 268.881 172.019C277.015 177.016 283.022 184.138 287.151 193.259C291.157 202.38 293.283 213.499 293.283 225.62C293.283 239.739 290.281 251.858 283.147 260.979C277.015 270.099 267.003 278.22 254.739 284.219C272.008 289.216 285.148 298.337 293.158 310.456C301.167 322.575 306.299 337.693 306.299 354.936C306.299 369.055 303.295 381.174 298.165 391.295C293.158 401.414 285.025 410.536 275.888 416.533C266.752 422.657 255.615 427.654 243.475 430.651C231.336 433.65 219.198 435.65 207.057 435.65L71.3994 435.9V156.9H204.055ZM195.92 270.099C207.057 270.099 216.193 267.101 223.201 261.979C230.209 256.855 233.339 247.858 233.339 236.739C233.339 230.617 232.338 224.62 230.335 220.621C228.332 216.624 225.33 213.499 221.199 210.502C217.195 208.502 213.066 206.503 208.059 205.503C203.053 204.503 197.923 204.503 191.914 204.503H133.221V270.224C133.221 270.099 195.92 270.099 195.92 270.099ZM198.924 389.421C205.056 389.421 211.063 388.421 216.193 387.421C221.199 386.421 226.331 384.424 230.335 381.299C234.34 378.176 237.468 375.177 240.472 370.18C242.475 365.181 244.476 359.059 244.476 351.937C244.476 337.819 240.472 327.699 232.338 320.577C224.203 314.454 213.066 311.456 199.924 311.456H133.221V389.295H198.924V389.421Z" fill="white"/>
<path d="M394.255 388.513C402.414 396.651 414.589 400.659 430.781 400.659C441.953 400.659 452.119 397.653 460.278 392.52C468.437 386.386 473.457 380.377 475.466 374.24H525.171C517.014 398.53 504.837 415.808 488.645 426.95C472.455 437.092 453.124 443.101 429.777 443.101C413.586 443.101 399.277 440.095 386.096 434.963C372.917 429.955 362.751 422.819 353.588 412.677C344.425 403.537 337.396 392.395 333.254 379.249C328.232 366.104 326.1 351.955 326.1 335.68C326.1 320.531 328.106 306.258 333.254 293.112C338.4 279.965 345.429 268.823 354.592 258.681C363.756 249.543 374.926 241.405 387.101 236.396C400.282 231.388 413.461 228.259 429.777 228.259C447.099 228.259 462.287 231.263 475.466 238.399C488.645 245.536 498.813 253.549 506.972 265.692C515.131 276.836 521.155 289.982 525.297 304.129C527.306 318.276 528.31 332.549 527.306 348.7H380.072C380.072 365.228 386.096 380.377 394.255 388.513ZM458.269 282.094C451.117 274.958 439.945 270.952 426.766 270.952C417.602 270.952 410.573 272.954 404.423 275.96C398.273 278.965 394.255 283.096 390.24 287.101C386.222 291.109 384.089 296.242 383.085 301.251C382.081 306.258 381.076 310.389 381.076 314.396H472.455C470.446 299.373 465.3 289.231 458.269 282.094ZM368.902 175.801H482.621V203.094H368.902V175.801Z" fill="white"/>
</svg>
