<svg width="600" height="600" viewBox="0 0 600 600" fill="none" xmlns="http://www.w3.org/2000/svg">
<path d="M600 299.988C600 220.426 568.408 144.123 512.173 87.8645C455.938 31.6059 379.667 0.000128069 300.139 0.000128069C224.631 -0.0696313 151.877 28.3615 96.4085 79.6143C40.9401 130.867 6.84117 201.168 0.923022 276.475C-4.99513 351.782 17.7032 426.551 64.484 485.846C111.265 545.141 178.684 584.597 253.275 596.333V386.684H177.196V299.988H253.318V233.905C253.318 158.737 298.083 117.167 366.579 117.167C399.393 117.167 433.706 123.038 433.706 123.038V196.878H395.88C358.612 196.878 347.046 220.02 347.046 243.719V299.988H430.193L416.913 386.684H347.003V596.333C417.535 585.159 481.766 549.174 528.144 494.85C574.522 440.526 600.002 371.429 600 299.988Z" fill="#1877F2"/>
<path d="M416.87 386.686L430.15 299.989H347.002V243.72C347.002 220.021 358.569 196.879 395.837 196.879H433.662V122.996C433.662 122.996 399.35 117.125 366.536 117.125C297.997 117.125 253.274 158.695 253.274 233.863V299.989H177.195V386.686H253.317V596.334C284.369 601.223 315.994 601.223 347.045 596.334V386.686H416.87Z" fill="white"/>
</svg>
