<svg width="600" height="600" viewBox="0 0 600 600" fill="none" xmlns="http://www.w3.org/2000/svg">
<path d="M152.144 597.878C116.462 596.255 97.0785 590.317 84.1858 585.288C67.1026 578.637 54.9232 570.72 42.1018 557.916C29.2805 545.112 21.3451 532.933 14.7294 515.85C9.70072 502.957 3.76259 483.574 2.13986 447.891C0.356644 409.32 0 397.747 0 300.027C0 202.306 0.392308 190.751 2.12203 152.144C3.74476 116.462 9.71855 97.1142 14.7116 84.1858C21.363 67.1026 29.2983 54.9232 42.084 42.084C54.8875 29.2805 67.0669 21.3273 84.168 14.7116C97.0607 9.68288 116.444 3.74476 152.126 2.12203C190.715 0.356644 202.306 0 299.991 0C397.712 0 409.267 0.392308 447.874 2.12203C483.556 3.74476 502.904 9.71855 515.832 14.7116C532.915 21.3273 545.095 29.2805 557.916 42.084C570.737 54.8875 578.637 67.0847 585.288 84.168C590.317 97.0607 596.255 116.444 597.878 152.126C599.643 190.733 600 202.288 600 300.009C600 397.694 599.643 409.285 597.878 447.891C596.255 483.574 590.281 502.957 585.288 515.85C578.637 532.933 570.72 545.112 557.916 557.916C545.112 570.72 532.915 578.637 515.832 585.288C502.939 590.317 483.556 596.255 447.874 597.878C409.302 599.643 397.712 600 299.991 600C202.306 600 190.715 599.661 152.144 597.878Z" fill="url(#paint0_radial_79_51)"/>
<path d="M152.144 597.878C116.462 596.255 97.0785 590.317 84.1858 585.288C67.1026 578.637 54.9232 570.72 42.1018 557.916C29.2805 545.112 21.3451 532.933 14.7294 515.85C9.70072 502.957 3.76259 483.574 2.13986 447.891C0.356644 409.32 0 397.747 0 300.027C0 202.306 0.392308 190.751 2.12203 152.144C3.74476 116.462 9.71855 97.1142 14.7116 84.1858C21.363 67.1026 29.2983 54.9232 42.084 42.084C54.8875 29.2805 67.0669 21.3273 84.168 14.7116C97.0607 9.68288 116.444 3.74476 152.126 2.12203C190.715 0.356644 202.306 0 299.991 0C397.712 0 409.267 0.392308 447.874 2.12203C483.556 3.74476 502.904 9.71855 515.832 14.7116C532.915 21.3273 545.095 29.2805 557.916 42.084C570.737 54.8875 578.637 67.0847 585.288 84.168C590.317 97.0607 596.255 116.444 597.878 152.126C599.643 190.733 600 202.288 600 300.009C600 397.694 599.643 409.285 597.878 447.891C596.255 483.574 590.281 502.957 585.288 515.85C578.637 532.933 570.72 545.112 557.916 557.916C545.112 570.72 532.915 578.637 515.832 585.288C502.939 590.317 483.556 596.255 447.874 597.878C409.302 599.643 397.712 600 299.991 600C202.306 600 190.715 599.661 152.144 597.878Z" fill="url(#paint1_radial_79_51)"/>
<path d="M226.335 301.279C226.335 260.246 259.591 226.973 300.624 226.973C341.658 226.973 374.931 260.246 374.931 301.279C374.931 342.313 341.658 375.586 300.624 375.586C259.591 375.586 226.335 342.313 226.335 301.279ZM186.166 301.279C186.166 364.495 237.409 415.737 300.624 415.737C363.839 415.737 415.082 364.495 415.082 301.279C415.082 238.064 363.839 186.822 300.624 186.822C237.409 186.822 186.168 238.061 186.168 301.279M392.867 182.283C392.864 187.574 394.431 192.746 397.369 197.146C400.306 201.546 404.482 204.976 409.369 207.002C414.256 209.029 419.634 209.561 424.823 208.531C430.012 207.5 434.779 204.955 438.521 201.216C442.264 197.476 444.813 192.711 445.847 187.523C446.881 182.335 446.354 176.956 444.331 172.068C442.309 167.179 438.882 163.001 434.484 160.06C430.087 157.119 424.916 155.548 419.626 155.546H419.615C412.524 155.549 405.724 158.367 400.708 163.38C395.693 168.393 392.873 175.192 392.867 182.283ZM210.572 482.719C188.839 481.729 177.027 478.109 169.178 475.051C158.771 470.999 151.345 466.174 143.539 458.378C135.732 450.581 130.899 443.163 126.865 432.756C123.805 424.91 120.185 413.094 119.198 391.362C118.117 367.867 117.901 360.809 117.901 301.283C117.901 241.757 118.135 234.719 119.198 211.204C120.187 189.472 123.834 177.679 126.865 169.81C130.917 159.403 135.742 151.978 143.539 144.171C151.335 136.364 158.753 131.531 169.178 127.498C177.024 124.438 188.839 120.818 210.572 119.83C234.067 118.749 241.125 118.533 300.624 118.533C360.123 118.533 367.188 118.763 390.704 119.833C412.436 120.823 424.228 124.47 432.097 127.501C442.504 131.535 449.93 136.378 457.737 144.174C465.543 151.97 470.358 159.406 474.41 169.813C477.47 177.66 481.09 189.475 482.077 211.207C483.158 234.723 483.374 241.761 483.374 301.287C483.374 360.812 483.158 367.851 482.077 391.366C481.088 413.098 477.45 424.91 474.41 432.76C470.358 443.167 465.533 450.592 457.737 458.381C449.94 466.17 442.504 471.003 432.097 475.054C424.251 478.114 412.436 481.734 390.704 482.722C367.208 483.803 360.15 484.018 300.624 484.018C241.099 484.018 234.06 483.803 210.572 482.722M208.726 79.7269C184.997 80.8075 168.782 84.5701 154.621 90.0802C139.965 95.7705 127.541 103.404 115.135 115.791C102.73 128.177 95.1152 140.602 89.425 155.277C83.9148 169.446 80.1522 185.652 79.0716 209.381C77.9731 233.148 77.7217 240.746 77.7217 301.279C77.7217 361.813 77.9731 369.411 79.0716 393.178C80.1522 416.909 83.9148 433.113 89.425 447.282C95.1152 461.939 102.731 474.387 115.135 486.768C127.539 499.149 139.947 506.772 154.621 512.479C168.809 517.989 184.997 521.751 208.726 522.832C232.505 523.913 240.091 524.182 300.624 524.182C361.157 524.182 368.756 523.931 392.522 522.832C416.254 521.751 432.458 517.989 446.627 512.479C461.283 506.772 473.707 499.154 486.113 486.768C498.519 474.382 506.117 461.939 511.823 447.282C517.334 433.113 521.114 416.907 522.177 393.178C523.257 369.393 523.509 361.813 523.509 301.279C523.509 240.746 523.257 233.148 522.177 209.381C521.096 185.65 517.334 169.437 511.823 155.277C506.117 140.62 498.499 128.197 486.113 115.791C473.727 103.385 461.283 95.7705 446.645 90.0802C432.458 84.5701 416.252 80.7897 392.54 79.7269C368.77 78.6409 361.175 78.377 300.651 78.377C240.127 78.377 232.514 78.6284 208.735 79.7269" fill="white"/>
<defs>
<radialGradient id="paint0_radial_79_51" cx="0" cy="0" r="1" gradientUnits="userSpaceOnUse" gradientTransform="translate(38.8314 586.856) scale(761.777)">
<stop offset="0.09" stop-color="#FA8F21"/>
<stop offset="0.78" stop-color="#D82D7E"/>
</radialGradient>
<radialGradient id="paint1_radial_79_51" cx="0" cy="0" r="1" gradientUnits="userSpaceOnUse" gradientTransform="translate(415.599 567.59) scale(670.371)">
<stop offset="0.64" stop-color="#8C3AAA" stop-opacity="0"/>
<stop offset="1" stop-color="#8C3AAA"/>
</radialGradient>
</defs>
</svg>
