<svg width="600" height="600" viewBox="0 0 600 600" fill="none" xmlns="http://www.w3.org/2000/svg">
<rect width="600" height="600" rx="44" fill="#0A66C2"/>
<path d="M88.7648 487V187H191.965V487H88.7648ZM140.365 149.8C123.565 149.8 109.965 145.2 99.5648 136C89.1648 126.4 83.9648 113.8 83.9648 98.2C83.9648 82.6 89.1648 70.2 99.5648 61C109.965 51.4 123.565 46.6 140.365 46.6C157.165 46.6 170.765 51.4 181.165 61C191.565 70.2 196.765 82.6 196.765 98.2C196.765 113.8 191.565 126.4 181.165 136C170.765 145.2 157.165 149.8 140.365 149.8ZM231.616 487V187H315.616L322.816 223H325.216C337.216 211.4 350.816 201.4 366.016 193C381.616 184.2 399.616 179.8 420.016 179.8C453.216 179.8 477.016 191 491.416 213.4C506.216 235.4 513.616 265 513.616 302.2V487H410.416V315.4C410.416 296.2 408.016 283.4 403.216 277C398.416 270.6 390.816 267.4 380.416 267.4C370.816 267.4 362.816 269.4 356.416 273.4C350.016 277.4 342.816 283 334.816 290.2V487H231.616Z" fill="white"/>
</svg>
