<svg width="4593" height="2594" viewBox="0 0 4593 2594" fill="none" xmlns="http://www.w3.org/2000/svg">
<path d="M2292.26 2318.01C2141.86 2318.01 1989.21 2286.36 1843.92 2219.45C1582.89 2099.24 1384.27 1884.6 1284.66 1615.01C1185.08 1345.42 1196.43 1053.22 1316.63 792.186C1564.77 253.3 2205.07 16.8543 2743.89 264.864C3004.92 385.067 3203.54 599.716 3303.15 869.301C3402.73 1138.89 3391.38 1431.09 3271.18 1692.13C3089.96 2085.72 2699.57 2318.01 2292.26 2318.01ZM2295.27 342.866C1954.78 342.866 1628.51 537.016 1476.97 866.038C1376.51 1084.23 1367.04 1328.54 1450.3 1553.86C1533.53 1779.19 1699.57 1958.64 1917.8 2059.1C2368.14 2266.49 2903.41 2068.8 3110.87 1618.34C3211.3 1400.14 3220.81 1155.84 3137.54 930.512C3054.28 705.187 2888.27 525.737 2670.07 425.272C2548.63 369.352 2420.95 342.866 2295.27 342.866Z" fill="#1A1A19"/>
<path d="M1556.53 869.902C1521.39 940.111 1495.64 1016.5 1481.28 1097.76C1445.74 1299.26 1486.04 1496.58 1581.62 1660.51L2163.82 977.085L1556.53 869.902Z" fill="#2E4F3E"/>
<path d="M2256.37 412C1970.4 426.732 1712.92 589.137 1574.72 835.595L2463.7 992.486L2256.37 412Z" fill="#5C4A3C"/>
<path d="M3043.1 1614.51C3078.24 1544.3 3103.99 1467.91 3118.31 1386.65C3153.86 1185.31 3113.63 988.115 3018.2 824.254L2435.81 1507.33L3043.1 1614.51Z" fill="#A8C3A5"/>
<path d="M2997.89 791.173C2876.8 603.867 2681.22 465.51 2444.27 423.689C2394.18 414.849 2344.34 410.73 2295.2 410.92L2598.37 1259.76L2997.89 791.173Z" fill="#C8D5CB"/>
<path d="M1601.96 1693.58C1723.05 1880.7 1918.56 2018.93 2155.36 2060.72C2208.71 2070.13 2261.75 2074.18 2313.96 2073.33L2001.51 1224.52L1601.96 1693.58Z" fill="#4A7053"/>
<path d="M2352.77 2071.81C2634.93 2054.03 2888.27 1892.55 3024.91 1648.82L2139.52 1492.56L2352.77 2071.81Z" fill="#6E9C7C"/>
<path d="M4557.26 1242.43H4549.21C2207.79 -1430.2 175.172 1072.07 41.8206 1242.43H34.7871C36.0227 1243.85 37.2901 1245.22 38.5258 1246.64C36.0545 1249.81 34.7871 1251.52 34.7871 1251.52H42.8346C2384.26 3924.15 4669.43 1888.61 4550.23 1251.52H4557.26C4556.02 1250.09 4554.76 1248.73 4553.52 1247.31C4555.99 1244.11 4557.26 1242.43 4557.26 1242.43ZM4289.73 1250.98H4283.52C4165.98 1401.19 2373.8 3607.39 309.41 1250.98H302.313C302.313 1250.98 303.454 1249.49 305.608 1246.7C304.5 1245.44 303.422 1244.23 302.313 1243H308.523C426.065 1092.79 2218.24 -1113.41 4282.64 1243H4289.73C4289.73 1243 4288.59 1244.49 4286.44 1247.27C4287.55 1248.51 4288.62 1249.71 4289.73 1250.98Z" fill="#1A1A19"/>
<path d="M2285.32 2493.98C1507.23 2493.98 750.746 2081.6 35.6744 1267.36H3.00987L18.0906 1247.37L0 1226.59H34.1537C151.284 1078.57 1020.02 34.7874 2245.65 0.823898C3045.53 -21.0053 3822.64 391.025 4556.4 1226.59H4589.07L4573.99 1246.58L4592.08 1267.36H4557.93C4440.76 1415.41 3571.81 2459.22 2346.3 2493.09C2325.96 2493.69 2305.62 2493.98 2285.32 2493.98ZM59.1195 1246.04C786.421 2074.31 1555.42 2483.65 2345.42 2461.44C3556.38 2427.92 4416.59 1394.85 4532.93 1247.88C3805.56 419.539 3035.97 10.361 2246.5 32.4754C1035.44 66.027 175.457 1099.06 59.1195 1246.04ZM2286.58 2348.3C1600.18 2348.33 932.92 1984.71 302.25 1266.82H270.599L285.205 1247.4L270.694 1230.83L300.698 1227.31C405.725 1094.72 1171.68 176.282 2251.61 146.374C2957.01 126.794 3642.68 490.476 4289.83 1227.12H4321.42L4306.84 1246.58L4321.07 1263.02L4291.41 1266.63C4186.48 1399.13 3420.53 2317.66 2340.51 2347.57C2322.51 2348.05 2304.51 2348.3 2286.58 2348.3ZM326.234 1246.1C966.82 1975.18 1643.94 2335.44 2339.62 2315.89C3403.2 2286.46 4159.61 1381.77 4265.84 1247.84C3625.29 518.768 2947.89 158.888 2252.49 178.056C1188.88 207.489 432.465 1112.18 326.234 1246.1Z" fill="#1A1A19"/>
</svg>
