<svg width="600" height="600" viewBox="0 0 600 600" fill="none" xmlns="http://www.w3.org/2000/svg">
<path fill-rule="evenodd" clip-rule="evenodd" d="M511.992 87.8176C263.38 -152.501 -126.635 144.792 42.3366 446.128L0 600L158.188 558.712C460.832 717.999 750.565 331.974 511.992 87.8176Z" fill="#F1F1F1"/>
<path fill-rule="evenodd" clip-rule="evenodd" d="M300.923 549.491C251.808 549.665 204.063 534.983 162.885 508.956L67.1761 533.934L92.7268 441.074C64.0194 398.723 47.8287 349.051 48.0486 297.64C47.5958 75.1711 322.477 -38.2558 479.798 119.821C638.381 276.551 524.47 549.98 300.923 549.491Z" fill="#66E066"/>
<path fill-rule="evenodd" clip-rule="evenodd" d="M439.621 361.021C432.021 357.234 394.646 338.928 387.679 336.404C380.712 333.879 375.641 332.617 370.576 340.196C365.505 347.769 350.951 364.807 346.513 369.849C342.082 374.904 337.645 375.535 330.044 371.748C313.621 373.931 229.368 303.003 226.625 281.792C222.194 274.226 226.153 270.125 229.963 266.351C236.58 259.12 244.957 250.028 248.961 240.478C251.497 235.424 250.229 231.006 248.327 227.22C246.426 223.434 231.651 186.009 224.892 171.051C219.199 158.449 213.203 158.198 207.789 157.973C194.962 158.172 185.033 154.856 172.949 167.264C127.644 210.671 148.421 271.67 177.38 308.638C181.177 313.686 229.97 392.528 307.236 422.857C371.449 448.066 384.516 443.05 398.456 441.788C412.395 440.526 443.431 423.488 449.764 405.818C456.097 388.149 456.097 373.004 454.202 369.842C452.293 366.7 447.222 364.807 439.621 361.021Z" fill="#F1F1F1"/>
</svg>
